<?xml version="1.0" standalone="no"?>
<!DOCTYPE svg PUBLIC "-//W3C//DTD SVG 20010904//EN"
 "http://www.w3.org/TR/2001/REC-SVG-20010904/DTD/svg10.dtd">
<svg version="1.0" xmlns="http://www.w3.org/2000/svg"
 width="612.000000pt" height="612.000000pt" viewBox="0 0 612.000000 612.000000"
 preserveAspectRatio="xMidYMid meet">
<metadata>
Created by potrace 1.14, written by Peter Selinger 2001-2017
</metadata>
<g transform="translate(0.000000,612.000000) scale(0.100000,-0.100000)"
fill="#000000" stroke="none">
<path d="M900 6113 c-73 -8 -178 -35 -267 -69 -127 -49 -326 -184 -320 -218 1
-5 -3 -10 -10 -11 -7 0 -18 -7 -25 -15 -11 -12 -11 -12 6 0 18 14 19 13 13 -3
-4 -10 -7 -21 -7 -23 0 -3 -4 -3 -8 0 -5 3 -8 -7 -7 -22 1 -15 -3 -36 -10 -47
-7 -11 -10 -31 -8 -44 3 -21 1 -22 -14 -10 -15 12 -16 12 -8 -1 5 -8 11 -24
12 -34 2 -11 6 -22 10 -25 3 -3 3 4 0 17 -3 12 -2 20 2 17 8 -4 10 4 13 49 1
14 5 23 9 21 3 -3 5 7 3 20 -1 14 2 23 6 20 5 -3 7 4 5 15 -3 13 0 18 7 14 6
-4 8 -3 5 4 -11 16 3 42 22 42 14 -1 14 -2 -1 -11 -10 -5 -18 -15 -18 -21 0
-6 7 -5 18 3 15 13 16 12 3 -3 -7 -10 -10 -18 -6 -18 4 0 2 -6 -4 -13 -6 -8
-7 -17 -3 -21 4 -4 1 -6 -7 -4 -7 2 -16 -3 -18 -10 -3 -8 2 -10 14 -6 15 5 15
4 3 -5 -8 -6 -15 -14 -15 -18 -1 -4 -6 -18 -13 -30 -11 -21 -9 -27 9 -25 3 1
6 -6 6 -13 0 -11 -4 -12 -14 -4 -13 12 -16 4 -16 -43 0 -10 -4 -15 -9 -12 -13
8 -7 -46 7 -66 9 -13 8 -13 -8 -1 -9 8 -16 16 -13 18 2 3 0 18 -4 34 -5 17 -5
31 1 34 5 4 4 15 -3 28 -7 12 -11 26 -10 30 1 5 -3 5 -9 2 -8 -5 -8 -10 0 -18
18 -18 12 -31 -6 -16 -16 12 -17 12 -6 -2 7 -9 9 -19 5 -23 -4 -4 -7 -13 -7
-19 -1 -7 -6 -11 -13 -10 -7 2 -11 0 -11 -5 1 -4 0 -10 -1 -14 -1 -5 -3 -18
-4 -30 -1 -14 -7 -22 -16 -20 -10 2 -11 0 -2 -11 10 -11 9 -17 -1 -26 -8 -6
-16 -9 -19 -6 -2 3 -5 -2 -5 -10 0 -8 5 -11 10 -8 5 3 7 0 5 -8 -3 -8 -14 -13
-24 -11 -14 2 -16 1 -6 -6 8 -5 13 -12 13 -16 -1 -3 -1 -16 0 -28 0 -22 1 -22
8 -3 5 11 4 23 -1 26 -7 4 -6 9 0 13 6 3 12 3 15 -1 2 -5 2 -2 0 5 -1 7 1 11
6 8 4 -3 7 6 5 19 -1 14 3 28 8 31 7 5 9 -2 4 -20 -5 -20 -3 -26 5 -21 6 4 9
18 6 31 -2 13 -1 21 4 19 9 -6 6 15 -4 32 -4 6 -3 14 3 18 6 4 8 10 5 15 -3 5
0 12 6 16 9 5 10 -2 6 -27 -5 -27 -4 -30 4 -16 6 10 9 27 6 38 -3 10 -1 22 4
25 14 8 11 -49 -5 -71 -7 -11 -13 -34 -12 -52 1 -17 -2 -31 -6 -30 -3 1 -6 -2
-6 -8 0 -5 3 -9 7 -8 4 1 8 -5 8 -13 0 -12 -3 -11 -18 2 -17 16 -18 15 -14
-15 2 -17 0 -29 -5 -26 -5 3 -6 13 -3 22 4 11 3 14 -5 9 -7 -4 -10 -22 -8 -41
3 -19 1 -37 -4 -40 -5 -3 -7 7 -4 21 4 24 3 26 -10 14 -9 -7 -13 -16 -10 -21
3 -5 -1 -19 -8 -31 -7 -13 -11 -27 -10 -31 1 -5 -7 -11 -18 -14 -11 -3 -17 -9
-15 -14 3 -4 -4 -6 -15 -4 -12 2 -20 -1 -20 -9 0 -8 10 -12 24 -11 23 3 30
-14 12 -32 -4 -4 -6 -2 -4 6 2 7 -3 16 -11 19 -10 3 -11 0 -5 -9 6 -11 5 -12
-7 -2 -16 13 -31 6 -39 -17 -3 -8 -5 -980 -5 -2160 0 -2038 1 -2148 18 -2210
102 -367 328 -615 665 -729 158 -54 61 -52 2417 -48 l2180 2 76 22 c378 107
630 365 732 746 l22 82 -1 2140 c-1 1177 -3 2161 -5 2187 -2 25 -7 44 -11 42
-4 -3 -5 -12 -2 -22 5 -15 4 -15 -5 -1 -6 9 -9 26 -6 37 2 12 0 24 -4 26 -4 3
-7 -10 -6 -28 1 -23 -3 -32 -11 -29 -7 3 -11 17 -9 36 4 32 4 32 -9 8 -10 -19
-11 -29 -3 -42 6 -10 14 -16 17 -14 24 15 48 -56 25 -75 -10 -9 -13 -8 -11 4
1 9 5 18 8 22 10 9 -3 35 -13 28 -5 -3 -7 -9 -4 -14 3 -4 -3 -14 -13 -21 -15
-12 -16 -12 -6 1 13 19 12 40 -1 39 -5 -1 -9 -5 -7 -11 1 -5 -3 -6 -9 -3 -8 5
-8 10 0 18 15 15 14 32 -1 19 -10 -8 -13 -2 -15 26 -1 26 1 31 6 18 7 -19 8
-19 13 1 3 11 2 27 -3 34 -7 12 -9 11 -10 -1 0 -10 -3 -8 -8 5 -5 11 -7 28 -5
37 1 10 -3 17 -9 15 -7 -1 -11 4 -10 10 2 7 -2 12 -9 10 -15 -3 -18 23 -4 42
9 12 8 13 -4 6 -38 -23 -65 -1 -39 33 12 15 12 16 -2 5 -9 -7 -19 -10 -23 -6
-4 4 -4 -1 0 -11 4 -10 2 -21 -4 -25 -7 -4 -8 -12 -2 -21 8 -13 10 -12 10 3 0
10 5 15 10 12 8 -5 7 -12 -2 -23 -11 -13 -11 -14 1 -7 10 5 12 4 7 -4 -4 -7
-2 -10 5 -9 6 2 13 -10 15 -27 3 -24 2 -26 -6 -10 -6 14 -9 16 -10 5 -2 -8 -2
-19 -1 -23 1 -5 -3 -6 -9 -2 -7 4 -7 12 0 25 7 13 7 21 0 25 -10 6 -14 -1 -10
-20 1 -5 -7 -2 -18 8 -18 17 -27 51 -10 41 4 -3 8 -1 8 4 0 17 -13 22 -29 10
-13 -10 -14 -10 -4 2 11 11 8 19 -13 41 -14 15 -27 31 -27 36 -1 4 -5 7 -10 5
-4 -1 -2 7 5 17 9 15 9 23 -2 35 -7 9 -15 14 -18 11 -3 -2 0 -11 7 -18 9 -11
7 -17 -6 -28 -16 -13 -17 -12 -5 3 9 11 10 18 2 23 -6 4 -9 12 -7 18 2 7 -4
23 -13 37 -10 14 -16 33 -15 42 2 10 -1 20 -6 24 -8 5 -13 -10 -10 -29 1 -5
-3 -5 -9 -2 -8 5 -7 13 3 28 12 19 11 25 -9 55 -13 18 -20 40 -17 48 3 8 -1
21 -8 30 -7 9 -12 32 -10 51 2 24 -1 33 -8 28 -6 -3 -8 -11 -5 -17 5 -7 2 -8
-5 -4 -7 5 -10 11 -7 14 3 3 1 11 -5 18 -7 8 -6 14 2 20 7 4 9 3 5 -4 -3 -6
-2 -13 3 -16 11 -7 23 22 15 35 -3 5 -9 7 -13 5 -4 -3 -8 1 -8 8 0 10 9 13 26
9 23 -4 21 -1 -14 27 -21 17 -44 29 -51 26 -7 -3 -11 0 -9 7 7 18 -138 84
-252 115 l-98 27 -2165 1 c-1191 1 -2181 -1 -2200 -3z m4764 -171 c3 -5 -1 -9
-9 -9 -8 0 -12 4 -9 9 3 4 7 8 9 8 2 0 6 -4 9 -8z m-5307 -86 c0 -8 -5 -14
-11 -13 -6 1 -10 -4 -8 -11 1 -8 -2 -11 -8 -7 -8 5 -6 13 6 26 21 23 21 23 21
5z m-37 -190 c0 -2 -8 -10 -17 -17 -16 -13 -17 -12 -4 4 13 16 21 21 21 13z
m5405 -5 c3 -5 2 -12 -3 -15 -5 -3 -9 1 -9 9 0 17 3 19 12 6z m-5485 -75 c0
-2 -8 -10 -17 -17 -16 -13 -17 -12 -4 4 13 16 21 21 21 13z m5511 -13 c13 -16
12 -17 -3 -4 -10 7 -18 15 -18 17 0 8 8 3 21 -13z m-5520 -106 c-10 -9 -11 -8
-5 6 3 10 9 15 12 12 3 -3 0 -11 -7 -18z m-4 -32 c0 -8 -4 -12 -9 -9 -5 3 -6
10 -3 15 9 13 12 11 12 -6z m5608 -15 c10 -11 16 -20 13 -20 -3 0 -13 9 -23
20 -10 11 -16 20 -13 20 3 0 13 -9 23 -20z m113 -43 c-1 -3 8 -17 21 -31 30
-32 34 -48 30 -120 -1 -17 -4 -23 -9 -16 -4 7 -5 22 -3 34 4 17 3 18 -6 6 -10
-13 -11 -13 -12 0 -1 8 -1 21 0 27 1 7 -4 11 -11 9 -7 -1 -10 -1 -5 1 13 8 7
60 -8 73 -8 7 -12 17 -9 22 3 5 8 7 11 4 2 -2 3 -7 1 -9z m-5801 -122 c0 -8
-4 -12 -9 -9 -5 3 -6 10 -3 15 9 13 12 11 12 -6z m-110 -114 c0 -11 -5 -18 -9
-15 -4 3 -5 11 -1 19 7 21 12 19 10 -4z m2653 -1286 c92 -30 240 -57 499 -90
150 -20 209 -32 251 -51 85 -39 321 -112 418 -129 191 -34 376 -27 560 21 72
19 119 18 210 -4 53 -13 83 -27 109 -51 l36 -33 -7 -81 c-7 -95 -15 -148 -25
-162 -4 -5 -6 -20 -5 -32 0 -13 -3 -23 -9 -23 -5 0 -7 -9 -4 -20 3 -11 0 -20
-6 -20 -7 0 -5 -5 3 -10 8 -5 10 -10 4 -10 -7 0 -15 -7 -18 -16 -4 -10 -2 -13
7 -8 6 4 3 -3 -8 -16 -11 -13 -14 -20 -7 -16 12 7 12 4 1 -15 -7 -13 -12 -34
-10 -45 1 -13 -5 -24 -15 -28 -14 -5 -14 -9 -3 -23 8 -9 9 -14 3 -10 -7 4 -14
-2 -17 -14 -4 -14 -2 -18 7 -12 6 4 4 1 -6 -9 -13 -12 -15 -18 -6 -21 8 -3 6
-6 -5 -6 -10 -1 -15 -6 -12 -11 4 -6 11 -7 17 -4 7 4 8 2 4 -5 -4 -6 -11 -9
-16 -6 -9 5 -33 -55 -25 -63 3 -3 5 1 5 8 0 7 3 10 6 7 4 -4 1 -13 -6 -22 -7
-8 -9 -22 -6 -31 6 -15 4 -15 -11 -3 -11 9 -14 10 -9 2 14 -24 14 -50 0 -50
-10 0 -11 4 -3 13 7 8 7 14 -1 19 -6 4 -10 3 -9 -2 1 -4 0 -11 -1 -15 -4 -13
-7 -27 -9 -39 0 -5 -7 -7 -13 -3 -9 5 -9 2 1 -9 14 -17 26 -24 17 -9 -2 4 0
14 5 22 7 11 8 8 5 -10 -2 -14 -9 -24 -15 -22 -6 1 -11 -3 -11 -9 0 -5 -4 -8
-9 -5 -5 4 -11 2 -13 -3 -5 -14 -117 -61 -182 -76 -33 -8 -99 -17 -146 -21
-94 -7 -128 -20 -159 -60 -12 -15 -21 -23 -21 -19 0 4 -8 1 -17 -6 -9 -8 -14
-9 -10 -2 5 7 0 9 -13 6 -11 -3 -18 -9 -15 -13 3 -5 -4 -6 -15 -3 -12 3 -29
-2 -42 -13 -12 -11 -18 -13 -13 -5 5 10 -3 8 -26 -5 -19 -10 -35 -22 -37 -26
-2 -5 -10 -8 -18 -8 -8 0 -14 -4 -14 -10 0 -5 -7 -10 -15 -10 -18 0 -38 -36
-29 -53 5 -7 1 -6 -10 2 -9 8 -16 10 -15 5 1 -5 1 -16 0 -24 -1 -13 -2 -13
-12 0 -8 12 -9 10 -4 -9 4 -14 3 -21 -2 -18 -9 5 -11 -96 -3 -113 1 -3 2 -8 2
-11 -8 -66 -9 -207 -1 -221 17 -32 45 -21 68 27 12 25 21 50 21 57 0 7 12 21
25 31 24 17 24 17 44 -20 33 -65 49 -74 150 -80 l91 -6 0 25 c0 38 91 77 103
44 3 -8 -3 -22 -14 -32 -26 -23 -24 -37 4 -29 57 18 129 124 143 213 7 47 7
47 55 31 40 -14 68 -36 80 -64 5 -11 14 -27 20 -35 9 -12 -3 -45 -54 -153 -36
-75 -63 -137 -60 -137 3 0 1 -6 -6 -13 -9 -12 -17 -55 -26 -138 -1 -15 -6 -32
-10 -39 -5 -9 -4 -11 3 -6 9 5 9 0 3 -17 -6 -14 -7 -28 -4 -31 4 -3 0 -6 -7
-6 -7 0 -11 -3 -8 -6 4 -3 -1 -27 -9 -52 -24 -75 -38 -107 -96 -213 -24 -44
-65 -104 -92 -132 -14 -15 -23 -27 -20 -27 4 0 -8 -12 -27 -27 -18 -16 -46
-40 -62 -55 -16 -16 -33 -28 -38 -28 -5 0 -6 -5 -2 -12 4 -6 3 -8 -3 -5 -5 3
-20 -4 -34 -16 -14 -12 -45 -38 -69 -57 -25 -19 -46 -38 -48 -42 -2 -4 -10 -8
-18 -8 -8 0 -14 -4 -14 -10 0 -5 -7 -10 -15 -10 -8 0 -15 -5 -15 -11 0 -5 -4
-7 -10 -4 -5 3 -10 1 -10 -5 0 -6 -4 -8 -10 -5 -5 3 -10 1 -10 -6 0 -7 -3 -9
-7 -6 -3 4 -15 0 -24 -9 -17 -16 -19 -16 -25 0 -3 9 -14 16 -23 16 -14 0 -14
-2 -1 -10 9 -6 10 -10 3 -10 -19 0 -41 39 -36 63 4 18 3 19 -6 7 -8 -11 -11
-12 -11 -2 0 7 -5 10 -10 7 -8 -5 -7 -12 2 -23 12 -15 11 -16 -4 -3 -10 7 -15
17 -12 22 8 14 -21 11 -115 -12 -133 -32 -257 -24 -376 23 -49 20 -81 30 -70
22 21 -16 151 -84 160 -84 28 0 35 -1 35 -10 0 -7 -7 -7 -22 0 -21 10 -21 10
-6 -3 10 -8 14 -18 10 -23 -4 -4 1 -2 11 5 17 14 22 7 18 -24 -1 -5 8 1 19 14
13 15 20 18 20 9 0 -8 -3 -18 -7 -21 -3 -4 -7 -18 -8 -32 -1 -30 15 -17 18 14
2 32 14 25 13 -8 -1 -16 -3 -27 -5 -25 -2 2 -13 -4 -24 -13 -11 -10 -17 -12
-13 -5 4 6 2 12 -4 12 -6 0 -8 6 -4 13 4 6 5 10 1 7 -3 -3 -6 -8 -6 -13 0 -4
-10 -17 -21 -29 -15 -16 -17 -25 -9 -35 6 -7 15 -10 20 -7 5 3 6 -2 3 -10 -5
-13 -9 -12 -24 7 -19 24 -24 38 -14 36 8 -1 24 22 24 34 0 7 -11 0 -46 -32
-11 -10 -12 -16 -3 -27 6 -8 15 -12 19 -9 4 3 15 -7 25 -21 9 -14 19 -23 22
-20 4 3 12 1 19 -5 8 -7 14 -6 20 2 4 7 3 9 -4 5 -6 -3 -13 -2 -17 4 -4 6 -11
7 -17 4 -7 -5 -8 -2 -3 5 5 9 10 10 18 2 7 -7 15 -7 24 1 11 9 13 8 11 -3 -2
-8 2 -13 8 -12 7 1 10 -6 7 -20 -4 -18 -3 -19 7 -7 9 12 10 10 4 -10 -6 -22
-5 -23 9 -11 9 7 15 17 12 21 -3 5 -1 11 4 14 18 11 5 -21 -22 -55 -15 -19
-24 -26 -21 -15 6 16 5 17 -14 7 -12 -7 -22 -19 -22 -29 0 -13 -2 -14 -9 -4
-6 10 -10 8 -14 -8 -4 -15 -10 -19 -19 -14 -19 12 -39 14 -32 3 3 -5 11 -6 17
-2 7 4 6 0 -2 -10 -14 -18 -26 -23 -17 -8 3 5 -1 11 -8 14 -11 4 -14 0 -11
-16 3 -19 2 -20 -8 -5 -10 15 -12 15 -25 0 -7 -9 -11 -12 -8 -5 8 14 -17 11
-37 -5 -11 -9 -17 -10 -22 -2 -5 8 -11 7 -23 -2 -13 -11 -14 -11 -7 1 6 11 4
13 -8 8 -9 -3 -19 -1 -23 5 -4 7 -9 6 -15 -3 -7 -11 -9 -9 -9 6 0 15 -3 17 -9
7 -7 -11 -10 -10 -15 3 -3 9 -12 15 -19 12 -6 -2 -18 3 -25 12 -11 13 -12 13
-6 1 5 -10 -1 -8 -16 5 -15 13 -21 15 -16 5 4 -8 1 -7 -8 4 -8 10 -19 15 -25
12 -5 -4 -13 -1 -17 5 -5 8 -3 9 6 4 9 -6 11 -4 6 4 -5 7 -14 10 -21 7 -8 -3
-21 7 -30 20 -9 14 -22 23 -30 20 -15 -5 -45 24 -45 45 0 12 -2 11 -10 -1 -9
-13 -14 -7 -11 13 1 6 -14 11 -31 8 -4 0 -4 7 -1 17 3 9 3 14 -2 10 -4 -4 -21
7 -38 25 -16 18 -34 31 -39 29 -5 -1 -7 2 -4 7 4 5 2 12 -4 16 -6 4 -7 11 -4
17 4 6 2 8 -3 5 -6 -4 -14 0 -17 9 -3 8 -11 12 -16 9 -6 -4 -9 -1 -8 7 2 7 -2
12 -9 11 -7 -2 -10 4 -6 13 4 10 -2 17 -17 21 -16 4 -18 8 -8 14 10 7 9 9 -5
9 -11 0 -15 4 -11 12 5 7 2 9 -8 5 -12 -4 -15 0 -11 16 4 18 3 20 -7 7 -10
-12 -11 -11 -7 8 3 14 1 20 -6 15 -6 -4 -8 0 -4 10 3 8 -1 21 -9 27 -8 7 -14
20 -15 29 0 11 -2 12 -6 3 -3 -7 0 -19 6 -26 8 -9 7 -13 -4 -13 -7 0 -14 3
-13 6 2 23 -4 41 -11 36 -5 -3 -13 0 -17 6 -4 8 -3 9 4 5 7 -4 12 -2 12 3 0 6
-5 11 -11 11 -5 0 -8 4 -5 9 5 8 -30 46 -43 46 -3 0 -5 3 -4 7 2 4 -5 4 -14 1
-11 -4 -14 -3 -9 5 4 7 1 12 -9 12 -9 0 -13 5 -10 11 4 6 0 9 -11 7 -11 -2
-19 3 -19 12 -1 8 -6 14 -13 12 -7 -1 -11 4 -10 10 2 7 -3 12 -10 10 -8 -1
-11 1 -8 6 3 5 -6 15 -20 22 -18 10 -21 16 -12 22 10 5 8 8 -4 8 -10 0 -18 4
-18 9 0 5 -21 31 -47 57 -27 27 -39 42 -28 34 15 -10 14 -8 -3 8 -13 12 -20
22 -15 22 4 0 -3 7 -15 16 -12 8 -20 20 -16 26 3 5 -9 26 -27 46 -21 23 -25
29 -9 17 25 -20 25 -20 10 0 -8 11 -22 26 -30 33 -13 12 -13 13 0 6 10 -5 8 1
-5 16 -13 15 -15 21 -5 16 8 -4 6 0 -4 8 -11 9 -16 16 -11 16 4 0 0 10 -11 22
-12 13 -13 18 -4 13 12 -7 13 -6 3 7 -7 8 -10 18 -6 21 3 4 -2 7 -13 7 -16 0
-17 2 -4 10 10 6 11 10 2 10 -6 0 -11 3 -10 8 4 19 -15 61 -26 55 -6 -4 -5 0
2 9 11 14 10 20 -5 35 -11 11 -17 25 -15 33 3 7 0 10 -6 6 -6 -4 -8 2 -5 14 3
12 0 20 -6 20 -7 0 -9 5 -6 10 3 6 1 10 -5 10 -6 0 -9 4 -6 9 9 15 -5 42 -18
34 -7 -4 -7 -1 1 8 10 13 10 19 -3 35 -14 18 -14 18 -4 -6 10 -24 10 -24 -4
-6 -13 16 -13 22 -3 35 8 9 8 12 1 8 -7 -4 -15 0 -18 9 -4 10 -2 13 7 9 6 -4
1 4 -13 16 -16 14 -19 20 -8 16 12 -4 15 -2 11 8 -3 8 -10 12 -17 8 -6 -4 -4
2 4 12 12 15 12 17 1 10 -11 -6 -13 -3 -8 14 4 17 2 21 -9 17 -8 -3 -12 -2 -9
3 3 5 1 12 -5 16 -7 4 -6 14 2 28 10 21 10 21 -7 7 -17 -14 -17 -14 -7 7 9 16
9 24 0 29 -6 4 -8 3 -4 -4 3 -6 1 -14 -5 -18 -7 -4 -9 -3 -6 3 4 6 -3 22 -14
37 -11 14 -17 26 -14 26 4 0 2 7 -5 15 -7 8 -9 15 -4 15 4 0 3 5 -4 12 -8 8
-8 16 0 32 11 20 10 20 -7 6 -12 -10 -16 -10 -11 -2 4 7 2 19 -4 27 -8 9 -8
15 -2 15 6 0 12 -6 15 -12 3 -7 4 -3 4 9 -1 12 -5 19 -9 17 -18 -11 -28 7 -17
29 l12 22 -24 -20 c-13 -11 -18 -13 -12 -5 7 9 8 21 4 29 -6 10 -10 10 -16 2
-5 -8 -11 -9 -19 -2 -9 8 -13 7 -13 -3 0 -9 8 -13 21 -10 18 3 16 0 -8 -21
-16 -14 -25 -25 -19 -25 6 0 8 -18 6 -42 -2 -24 -5 -56 -6 -73 -1 -16 -6 -35
-10 -42 -4 -6 -3 -15 3 -18 8 -5 8 -11 0 -20 -7 -8 -9 -19 -6 -24 4 -5 1 -13
-5 -17 -7 -4 -9 -3 -5 4 3 6 2 13 -4 17 -5 3 -10 2 -10 -3 0 -10 -44 -32 -64
-32 -8 0 -17 18 -21 43 -6 30 -9 36 -12 20 -3 -17 -17 -26 -59 -40 l-54 -17
-36 35 c-81 77 -150 238 -215 496 -27 109 -32 146 -32 250 -1 116 1 124 31
186 41 83 87 117 158 117 59 0 117 -25 159 -69 l29 -31 22 27 c12 16 24 26 26
23 3 -3 17 -41 32 -85 16 -44 40 -105 54 -135 24 -53 25 -63 26 -245 1 -211 5
-226 69 -266 48 -30 78 -35 92 -16 16 22 41 175 60 370 l16 159 84 101 c98
119 164 234 230 402 63 161 97 223 161 294 64 70 101 95 192 127 79 29 126 27
242 -11z m1795 -1475 c6 -1 14 -2 19 -1 5 1 6 -5 2 -14 -3 -9 -2 -13 3 -10 5
3 12 1 16 -5 3 -5 1 -10 -6 -10 -9 0 -9 -3 0 -14 9 -11 9 -16 0 -22 -8 -5 -9
-3 -4 6 5 9 4 11 -4 6 -6 -4 -10 -15 -9 -24 2 -11 -6 -16 -27 -18 -16 -1 -34
1 -40 4 -20 13 -97 23 -187 25 -38 1 -68 6 -68 10 0 5 -5 5 -12 1 -7 -5 -8 -3
-4 5 8 12 46 30 79 36 10 2 26 6 35 9 9 3 33 8 52 11 19 3 35 7 36 8 3 3 106
0 119 -3z m-751 -105 c-4 -8 -8 -15 -10 -15 -2 0 -4 7 -4 15 0 8 4 15 10 15 5
0 7 -7 4 -15z m-1880 -511 c3 -8 2 -12 -4 -9 -6 3 -10 10 -10 16 0 14 7 11 14
-7z m475 -688 c8 -10 9 -16 1 -21 -6 -4 -9 -1 -8 7 2 7 -3 12 -10 10 -8 -1
-11 2 -7 8 8 13 10 13 24 -4z m918 -248 c2 -17 0 -19 -7 -8 -5 8 -6 18 -4 22
8 12 10 10 11 -14z m60 -63 c0 -8 -4 -12 -9 -9 -5 3 -6 10 -3 15 9 13 12 11
12 -6z"/>
<path d="M5973 5299 c1 -20 7 -36 14 -36 7 0 10 4 6 9 -3 5 -9 22 -13 36 -8
25 -8 24 -7 -9z"/>
<path d="M1078 3069 c-24 -13 -23 -61 1 -83 11 -10 35 -23 53 -30 119 -43 225
-151 275 -278 9 -24 19 -47 23 -51 15 -17 2 90 -18 146 -59 164 -257 340 -334
296z"/>
<path d="M2600 2787 c-42 -11 -136 -55 -187 -88 -60 -37 -27 -69 70 -69 111 0
240 -17 283 -36 21 -9 43 -16 47 -15 5 1 6 -3 3 -8 -4 -5 -15 -8 -26 -6 -11 2
-23 -1 -26 -7 -4 -6 -2 -8 4 -4 6 3 15 -2 21 -11 8 -14 10 -15 11 -3 0 11 2
12 8 2 5 -7 72 -36 150 -65 150 -57 214 -93 232 -129 11 -22 10 -22 -4 -4 -14
17 -16 17 -16 4 0 -9 -5 -20 -12 -24 -7 -4 -8 -3 -4 4 4 7 -5 10 -29 8 -20 -2
-52 0 -72 6 -148 41 -430 55 -558 29 -105 -22 -204 -76 -181 -98 3 -3 34 7 70
21 35 14 67 26 70 26 3 0 6 -24 6 -52 1 -59 19 -120 45 -148 21 -24 111 -54
233 -79 l92 -18 43 27 c62 39 114 104 128 161 7 27 16 49 20 49 30 0 119 -110
119 -147 0 -14 6 -23 16 -23 25 0 114 41 114 53 0 6 2 8 5 6 7 -7 145 130 145
144 0 7 5 19 11 27 10 13 10 13 6 -1 -3 -9 1 -16 8 -16 7 0 10 8 7 19 -2 10 1
18 7 18 7 0 9 -6 6 -12 -4 -7 1 -4 9 6 9 11 16 25 16 32 0 7 4 16 10 19 6 4 7
-1 4 -12 -5 -15 -4 -15 4 -3 7 9 7 19 2 26 -6 6 -6 15 -2 19 4 5 2 5 -4 2 -7
-4 -15 0 -18 9 -4 9 -9 14 -13 11 -3 -4 -12 -2 -20 4 -7 6 -13 8 -13 4 0 -4
-8 -1 -17 6 -10 8 -14 9 -10 2 4 -6 3 -14 -2 -17 -13 -8 -8 13 13 52 20 38 15
82 -12 104 -9 8 -68 24 -131 37 -124 24 -258 68 -391 127 -72 32 -97 38 -165
40 -44 2 -100 -3 -125 -9z m888 -378 c9 -12 9 -16 -1 -16 -7 0 -14 9 -14 20
-1 11 -1 18 0 16 2 -2 8 -11 15 -20z m-11 -42 c0 -8 -6 -14 -14 -14 -9 0 -10
4 -2 14 6 7 12 13 14 13 1 0 2 -6 2 -13z m-68 -89 c-2 -2 -24 -21 -49 -43
l-45 -40 40 43 c21 23 43 42 49 42 5 0 7 -1 5 -2z m-533 -162 c12 -12 10 -18
-17 -40 -28 -24 -77 -35 -91 -20 -13 12 6 42 35 57 40 20 55 21 73 3z"/>
<path d="M1202 2738 c-14 -14 -16 -38 -3 -38 10 0 26 39 19 46 -2 2 -10 -2
-16 -8z"/>
<path d="M1300 2553 c0 -17 43 -153 47 -149 3 2 9 24 14 48 6 24 20 54 32 67
l22 24 -36 -7 c-26 -5 -40 -2 -49 9 -13 16 -30 20 -30 8z"/>
<path d="M1645 2301 c-3 -5 -1 -12 5 -16 6 -4 8 -10 5 -15 -3 -5 -1 -11 5 -15
6 -4 8 -10 5 -15 -3 -4 2 -13 9 -19 10 -9 16 -9 21 -1 4 6 1 9 -6 8 -7 -2 -14
3 -15 10 -1 6 -3 14 -4 17 -1 3 -4 10 -5 15 -1 6 -4 13 -5 18 -1 4 -2 10 -1
15 1 10 -7 9 -14 -2z"/>
<path d="M1391 2224 c0 -11 3 -14 6 -6 3 7 2 16 -1 19 -3 4 -6 -2 -5 -13z"/>
<path d="M1715 2141 c-3 -5 -2 -12 3 -15 5 -3 9 1 9 9 0 17 -3 19 -12 6z"/>
<path d="M3730 1601 c0 -5 7 -44 16 -87 9 -42 14 -102 12 -131 -4 -46 -10 -58
-39 -84 -54 -47 -110 -69 -181 -70 -83 -1 -136 21 -192 82 -25 27 -49 49 -54
49 -15 0 -31 -25 -38 -58 -8 -41 23 -72 100 -101 32 -12 72 -32 89 -45 37 -28
99 -46 144 -42 61 6 98 40 142 131 39 82 41 89 42 189 1 99 -14 176 -33 176
-4 0 -8 -4 -8 -9z"/>
<path d="M2659 1279 c-7 -4 -16 -6 -20 -3 -4 2 -10 0 -14 -6 -4 -6 -12 -7 -18
-4 -7 4 -9 4 -5 -1 4 -4 3 -14 -3 -21 -15 -18 6 -27 65 -30 29 -1 54 -8 60
-16 34 -46 312 -211 375 -223 10 -2 35 -8 57 -14 113 -30 143 -34 249 -34 103
0 184 10 202 25 7 6 13 7 13 3 0 -4 16 2 36 14 19 12 44 21 55 21 10 0 19 4
19 9 0 4 -46 11 -102 15 -57 3 -126 9 -155 14 -36 6 -69 4 -108 -6 -48 -12
-61 -12 -84 -1 -14 8 -29 18 -32 22 -3 4 -16 9 -27 10 -12 1 -22 4 -22 7 0 3
-8 7 -17 8 -22 2 -58 10 -58 12 0 1 -7 3 -15 5 -170 34 -360 111 -360 146 0
37 -59 68 -91 48z"/>
<path d="M3636 882 c-2 -4 -1 -14 3 -21 6 -9 11 -10 15 -2 4 6 2 11 -4 11 -6
0 -8 5 -5 10 3 6 4 10 1 10 -3 0 -7 -4 -10 -8z"/>
<path d="M2710 636 c0 -2 8 -10 18 -17 15 -13 16 -12 3 4 -13 16 -21 21 -21
13z"/>
<path d="M3271 619 c-1 -8 6 -24 15 -35 15 -19 15 -19 6 1 -5 11 -12 27 -15
35 -5 13 -6 13 -6 -1z"/>
<path d="M5688 5897 c5 -7 9 -35 9 -64 0 -29 6 -59 13 -68 7 -8 10 -21 7 -29
-3 -8 5 -31 18 -50 14 -20 22 -36 18 -36 -3 0 -1 -6 4 -12 6 -7 9 -21 8 -30
-2 -9 13 -35 32 -58 20 -23 33 -47 29 -55 -3 -8 -1 -17 5 -20 5 -4 7 -10 5
-14 -3 -4 8 -21 24 -36 17 -16 30 -25 31 -19 1 5 2 18 3 29 0 12 7 19 16 17 8
-2 11 0 7 5 -5 4 -14 8 -20 8 -7 0 -12 5 -12 12 0 6 -4 15 -9 20 -5 4 -6 3 -2
-4 3 -6 1 -15 -5 -19 -8 -4 -9 5 -6 29 3 23 1 35 -6 34 -6 -1 -12 3 -12 8 -1
6 -5 18 -10 28 -6 15 -10 16 -16 5 -8 -13 -12 3 -12 54 0 9 -2 17 -6 16 -19
-2 -31 3 -26 11 3 5 1 12 -5 16 -5 3 -10 11 -10 17 0 6 7 5 18 -3 15 -12 16
-12 5 2 -7 8 -9 20 -5 25 4 5 -3 -1 -15 -14 -13 -13 -23 -18 -23 -11 0 7 10
24 23 38 15 18 16 21 3 11 -18 -14 -18 -13 -12 10 l7 25 -16 -25 c-13 -22 -15
-22 -14 -5 1 11 0 29 -1 40 l-1 20 -9 -20 c-7 -15 -9 -9 -9 25 -1 31 2 41 8
30 6 -8 8 -17 5 -21 -2 -4 6 -4 18 -1 17 5 19 7 7 10 -9 1 -21 14 -28 28 -14
31 -14 37 1 28 6 -4 8 -3 5 3 -4 6 -16 13 -27 16 -15 4 -19 2 -12 -6z m62
-173 c0 -8 -19 -13 -24 -6 -3 5 1 9 9 9 8 0 15 -2 15 -3z m48 -119 c2 -33 10
-47 22 -40 5 3 11 1 15 -5 3 -5 1 -10 -6 -10 -8 0 -5 -6 5 -13 12 -9 19 -29
21 -58 2 -30 0 -38 -5 -24 -5 11 -9 29 -9 40 -1 11 -12 32 -26 47 -14 15 -25
34 -25 43 0 9 -4 13 -10 10 -6 -3 -7 1 -4 10 4 8 0 23 -7 32 -13 15 -12 15 6
5 12 -6 21 -22 23 -37z m87 -169 c0 -14 -3 -22 -7 -20 -4 3 -8 17 -8 31 0 32
13 22 15 -11z"/>
<path d="M92 5362 c7 -8 13 -23 15 -34 3 -17 1 -19 -12 -8 -8 7 -13 16 -10 20
3 5 1 11 -4 14 -5 4 -8 -2 -6 -11 3 -24 -13 -55 -26 -48 -5 4 -6 12 -2 18 11
18 12 38 1 31 -5 -3 -7 -9 -4 -12 3 -3 1 -11 -5 -18 -7 -8 -7 -14 1 -19 8 -5
5 -14 -9 -29 -16 -17 -18 -23 -7 -23 8 0 13 4 11 8 -3 3 2 12 10 19 12 10 13
6 8 -24 -5 -35 -5 -35 20 -23 15 7 22 14 16 16 -5 1 -2 9 7 16 9 6 18 21 19
31 0 11 4 25 9 32 4 6 3 12 -3 12 -6 0 -8 7 -5 15 4 8 1 15 -6 15 -6 0 -9 4
-6 8 3 5 -1 9 -9 9 -12 0 -12 -3 -3 -15z m7 -80 l-2 -27 -5 25 c-4 23 -6 21
-17 -15 -11 -34 -13 -35 -10 -10 5 62 37 87 34 27z"/>
<path d="M5886 5361 c-4 -5 -2 -12 3 -15 5 -4 12 -2 15 3 4 5 2 12 -3 15 -5 4
-12 2 -15 -3z"/>
<path d="M13 5207 c1 -15 5 -27 8 -27 8 0 20 42 14 49 -3 2 -5 -2 -5 -10 0
-12 -2 -12 -9 0 -7 10 -9 7 -8 -12z"/>
</g>
</svg>
