<svg width="259.53132324218745px" height="141.2px" xmlns="http://www.w3.org/2000/svg" viewBox="120.23433837890627 4.400000000000006 259.53132324218745 141.2" style="background: rgb(255, 255, 255);" preserveAspectRatio="xMidYMid"><defs><filter id="editing-hole" x="-100%" y="-100%" width="300%" height="300%"><feFlood flood-color="#ffffff" result="black"></feFlood><feMorphology operator="dilate" radius="2" in="SourceGraphic" result="erode"></feMorphology><feGaussianBlur in="erode" stdDeviation="4" result="blur"></feGaussianBlur><feOffset in="blur" dx="2" dy="2" result="offset"></feOffset><feComposite operator="atop" in="offset" in2="black" result="merge"></feComposite><feComposite operator="in" in="merge" in2="SourceGraphic" result="inner-shadow"></feComposite></filter></defs><g filter="url(#editing-hole)"><g transform="translate(161.8700180053711, 97.55999946594238)"><path d="M43.97-44.29L50.18-44.29L50.18 0L44.35 0L44.35-33.02L29.63 0L25.54 0L10.75-32.96L10.75 0L4.93 0L4.93-44.29L11.20-44.29L27.58-7.68L43.97-44.29ZM84.03-40.06L65.86-40.06L65.86-24.77L82.11-24.77L82.11-20.29L65.86-20.29L65.86-4.61L84.03-4.61L84.03 0L60.03 0L60.03-44.67L84.03-44.67L84.03-40.06ZM127.94-44.67L127.94 0L122.11 0L98.69-35.52L98.69 0L92.86 0L92.86-44.67L98.69-44.67L122.11-9.22L122.11-44.67L127.94-44.67ZM137.73-44.61L143.55-44.61L143.55-16.45L143.55-16.45Q143.55-10.56 146.50-7.65L146.50-7.65L146.50-7.65Q149.44-4.74 154.56-4.74L154.56-4.74L154.56-4.74Q159.68-4.74 162.59-7.65L162.59-7.65L162.59-7.65Q165.50-10.56 165.50-16.45L165.50-16.45L165.50-44.61L171.33-44.61L171.33-16.45L171.33-16.45Q171.33-10.88 169.09-7.07L169.09-7.07L169.09-7.07Q166.85-3.26 163.04-1.41L163.04-1.41L163.04-1.41Q159.23 0.45 154.50 0.45L154.50 0.45L154.50 0.45Q149.76 0.45 145.95-1.41L145.95-1.41L145.95-1.41Q142.14-3.26 139.94-7.07L139.94-7.07L139.94-7.07Q137.73-10.88 137.73-16.45L137.73-16.45L137.73-44.61Z" fill="#ffffff"></path></g></g><style>text {
  font-size: 64px;
  font-family: Arial Black;
  dominant-baseline: central;
  text-anchor: middle;
}</style></svg>